<svg xmlns="http://www.w3.org/2000/svg" viewBox="0 0 1024 1024" role="img" aria-label="Multi app icon">
  <defs>
    <filter id="softShadow" x="-30%" y="-30%" width="160%" height="160%" color-interpolation-filters="sRGB">
      <feDropShadow dx="0" dy="18" stdDeviation="22" flood-color="#0f172a" flood-opacity="0.18"/>
      <feDropShadow dx="0" dy="4" stdDeviation="8" flood-color="#0f172a" flood-opacity="0.12"/>
    </filter>
    <linearGradient id="moduleFill" x1="170" y1="116" x2="820" y2="880" gradientUnits="userSpaceOnUse">
      <stop offset="0" stop-color="#ffffff"/>
      <stop offset="0.55" stop-color="#f4f7fb"/>
      <stop offset="1" stop-color="#d7e7f8"/>
    </linearGradient>
    <linearGradient id="moduleStroke" x1="230" y1="170" x2="780" y2="850" gradientUnits="userSpaceOnUse">
      <stop offset="0" stop-color="#ffffff"/>
      <stop offset="0.62" stop-color="#ccd7e4"/>
      <stop offset="1" stop-color="#76b8f5"/>
    </linearGradient>
    <linearGradient id="railFill" x1="244" y1="214" x2="760" y2="820" gradientUnits="userSpaceOnUse">
      <stop offset="0" stop-color="#65717e"/>
      <stop offset="1" stop-color="#121820"/>
    </linearGradient>
    <radialGradient id="hubFill" cx="45%" cy="32%" r="78%">
      <stop offset="0" stop-color="#6b7580"/>
      <stop offset="0.62" stop-color="#353d45"/>
      <stop offset="1" stop-color="#171d24"/>
    </radialGradient>
    <linearGradient id="hubStroke" x1="392" y1="310" x2="640" y2="706" gradientUnits="userSpaceOnUse">
      <stop offset="0" stop-color="#f7fbff"/>
      <stop offset="0.45" stop-color="#97a5b3"/>
      <stop offset="1" stop-color="#202832"/>
    </linearGradient>
  </defs>

  <g filter="url(#softShadow)">
    <path d="M512 284v132M512 608v132M284 512h132M608 512h132M354 354l94 94M576 576l94 94M354 670l94-94M576 448l94-94"
      fill="none" stroke="#121820" stroke-width="82" stroke-linecap="round" opacity="0.88"/>
    <path d="M512 284v132M512 608v132M284 512h132M608 512h132M354 354l94 94M576 576l94 94M354 670l94-94M576 448l94-94"
      fill="none" stroke="url(#railFill)" stroke-width="52" stroke-linecap="round"/>

    <rect x="397" y="102" width="230" height="230" rx="62" fill="url(#moduleFill)" stroke="url(#moduleStroke)" stroke-width="12"/>
    <rect x="397" y="692" width="230" height="230" rx="62" fill="url(#moduleFill)" stroke="url(#moduleStroke)" stroke-width="12"/>
    <rect x="102" y="397" width="230" height="230" rx="62" fill="url(#moduleFill)" stroke="url(#moduleStroke)" stroke-width="12"/>
    <rect x="692" y="397" width="230" height="230" rx="62" fill="url(#moduleFill)" stroke="url(#moduleStroke)" stroke-width="12"/>
    <rect x="188" y="188" width="214" height="214" rx="58" transform="rotate(-35 295 295)" fill="url(#moduleFill)" stroke="url(#moduleStroke)" stroke-width="12"/>
    <rect x="622" y="622" width="214" height="214" rx="58" transform="rotate(-35 729 729)" fill="url(#moduleFill)" stroke="url(#moduleStroke)" stroke-width="12"/>
    <rect x="188" y="622" width="214" height="214" rx="58" transform="rotate(35 295 729)" fill="url(#moduleFill)" stroke="url(#moduleStroke)" stroke-width="12"/>
    <rect x="622" y="188" width="214" height="214" rx="58" transform="rotate(35 729 295)" fill="url(#moduleFill)" stroke="url(#moduleStroke)" stroke-width="12"/>

    <path d="M512 332 638 405v146L512 624 386 551V405Z" fill="url(#hubFill)" stroke="url(#hubStroke)" stroke-width="14"/>
    <path d="M512 365 609 421v112L512 589 415 533V421Z" fill="none" stroke="#8c98a5" stroke-width="5" opacity="0.55"/>
  </g>
</svg>
