<?xml version="1.0" encoding="UTF-8"?>
<!-- Generator: visioncortex VTracer 0.6.12 -->
<svg version="1.1" xmlns="http://www.w3.org/2000/svg" width="1024" height="1024">
<path d="M0 0 C2.4 -0 4.79 -0 7.26 -0 C13.86 -0.01 20.46 -0.01 27.05 -0 C34.19 -0 41.32 -0 48.46 -0.01 C62.42 -0.01 76.38 -0.01 90.33 -0.01 C101.68 -0.01 113.03 -0.01 124.38 -0.01 C125.19 -0.01 125.19 -0.01 129.28 -0.01 C132.57 -0.01 135.86 -0.01 139.14 -0.01 C169.94 -0.01 200.73 -0.01 231.52 -0 C257.92 0 284.31 0 310.71 -0 C341.39 -0.01 372.08 -0.01 402.76 -0.01 C406.04 -0.01 409.31 -0.01 412.59 -0.01 C413.39 -0.01 413.39 -0.01 417.47 -0.01 C428.8 -0.01 440.13 -0.01 451.45 -0.01 C465.27 -0.01 479.08 -0.01 492.9 -0.01 C499.94 -0 506.98 -0 514.03 -0.01 C521.67 -0.01 529.32 -0 536.97 0 C538.07 -0 538.07 -0 543.66 -0.01 C606.52 0.07 663.33 15.75 710.48 59.13 C712.03 60.47 713.58 61.81 715.17 63.19 C756.78 101.18 777.61 158.17 780.27 213.37 C780.64 223.46 780.62 233.55 780.61 243.64 C780.61 244.84 780.61 244.84 780.61 250.9 C780.62 257.5 780.62 264.1 780.61 270.7 C780.61 277.83 780.61 284.97 780.62 292.1 C780.62 306.06 780.62 320.02 780.62 333.98 C780.62 345.33 780.62 356.68 780.62 368.02 C780.62 368.83 780.62 368.83 780.62 372.93 C780.62 376.21 780.62 379.5 780.62 382.79 C780.62 413.58 780.62 444.37 780.61 475.16 C780.61 501.56 780.61 527.96 780.61 554.35 C780.62 585.04 780.62 615.72 780.62 646.41 C780.62 649.68 780.62 652.95 780.62 656.23 C780.62 657.84 780.62 659.45 780.62 661.11 C780.62 672.44 780.62 683.77 780.62 695.1 C780.62 708.91 780.62 722.73 780.62 736.54 C780.61 743.59 780.61 750.63 780.62 757.67 C780.62 765.32 780.61 772.96 780.61 780.61 C780.61 781.71 780.61 781.71 780.62 787.3 C780.54 850.17 764.86 906.98 721.48 954.13 C720.14 955.67 718.8 957.22 717.42 958.81 C679.43 1000.42 622.44 1021.25 567.24 1023.92 C557.15 1024.29 547.06 1024.26 536.97 1024.25 C534.57 1024.26 532.17 1024.26 529.7 1024.26 C523.11 1024.26 516.51 1024.26 509.91 1024.26 C502.78 1024.26 495.64 1024.26 488.51 1024.26 C474.55 1024.27 460.59 1024.27 446.63 1024.26 C435.28 1024.26 423.93 1024.26 412.59 1024.26 C411.78 1024.26 411.78 1024.26 407.68 1024.26 C404.4 1024.26 401.11 1024.26 397.82 1024.26 C367.03 1024.27 336.24 1024.26 305.45 1024.26 C279.05 1024.25 252.65 1024.25 226.26 1024.26 C195.57 1024.26 164.89 1024.26 134.2 1024.26 C130.93 1024.26 127.65 1024.26 124.38 1024.26 C122.77 1024.26 121.16 1024.26 119.5 1024.26 C108.17 1024.26 96.84 1024.26 85.51 1024.26 C71.7 1024.27 57.88 1024.27 44.07 1024.26 C37.02 1024.26 29.98 1024.26 22.94 1024.26 C15.29 1024.26 7.65 1024.26 0 1024.25 C-1.1 1024.26 -1.1 1024.26 -6.69 1024.26 C-69.56 1024.18 -126.37 1008.5 -173.52 965.13 C-175.06 963.79 -176.61 962.45 -178.2 961.06 C-219.81 923.08 -240.65 866.08 -243.31 810.88 C-243.68 800.79 -243.65 790.71 -243.64 780.61 C-243.65 778.21 -243.65 775.82 -243.65 773.35 C-243.65 766.75 -243.65 760.15 -243.65 753.56 C-243.65 746.42 -243.65 739.29 -243.65 732.15 C-243.66 718.19 -243.66 704.23 -243.65 690.28 C-243.65 678.93 -243.65 667.58 -243.65 656.23 C-243.65 655.42 -243.65 655.42 -243.65 651.33 C-243.65 648.04 -243.65 644.75 -243.65 641.47 C-243.66 610.67 -243.65 579.88 -243.65 549.09 C-243.64 522.69 -243.64 496.3 -243.65 469.9 C-243.65 439.22 -243.66 408.53 -243.65 377.85 C-243.65 374.57 -243.65 371.3 -243.65 368.02 C-243.65 366.41 -243.65 364.8 -243.65 363.14 C-243.65 351.81 -243.65 340.48 -243.65 329.16 C-243.66 315.34 -243.66 301.53 -243.65 287.71 C-243.65 280.67 -243.65 273.63 -243.65 266.58 C-243.65 258.94 -243.65 251.29 -243.64 243.64 C-243.65 241.44 -243.65 239.23 -243.65 236.95 C-243.57 174.09 -227.89 117.27 -184.52 70.13 C-183.18 68.58 -181.84 67.03 -180.45 65.44 C-142.47 23.83 -85.47 3 -30.27 0.34 C-20.18 -0.03 -10.1 -0.01 0 0 Z " fill="#111318" transform="translate(243.517333984375,-0.126983642578125)"/>
<path d="M0 0 C2.7 2.63 5.38 5.29 8 8 C9.65 9.65 11.3 11.3 13 13 C33 33 33 33 38.25 38.62 C55.89 56.2 80.19 66.36 104.75 69.12 C115.41 70.41 115.41 70.41 120 75 C120.72 83.29 119.69 88.13 115 95 C104.66 105.34 94.13 111.93 79.19 112.06 C77.15 112.04 75.1 112.02 73 112 C73.69 112.89 74.38 113.78 75.1 114.7 C97.52 144.86 112.58 182.05 119 219 C119.19 220.04 119.19 220.04 120.13 225.33 C124.9 255.31 123.75 284.97 120 315 C119.85 316.3 119.85 316.3 119.11 322.87 C118.09 330.95 116.46 338.84 114.56 346.75 C114.22 348.21 113.87 349.67 113.51 351.17 C106.74 378.91 97.49 405.97 88.35 433 C87 437.01 85.67 441.03 84.34 445.04 C82.65 450.08 80.86 455.03 79 460 C71.87 481.97 65.82 504.05 63 527 C62.77 528.79 62.55 530.59 62.31 532.44 C59.35 585.19 76.63 632.78 111.89 672.23 C139.7 702.61 189.23 748.89 232 755 C235.9 753.89 235.9 753.89 239.94 752.25 C241.27 751.72 242.6 751.19 243.96 750.64 C244.63 750.37 244.63 750.37 248 749 C249.29 748.53 250.58 748.07 251.9 747.59 C288.96 733.24 322.46 705.45 345 673 C345.86 671.79 346.72 670.58 347.61 669.33 C356.74 656.11 364.12 641.95 370 627 C370.8 625.21 371.61 623.41 372.44 621.56 C375.95 612.56 378.46 603.32 381 594 C381.33 594 381.66 594 382 594 C379.33 631.92 354.08 669.74 329 697 C327.66 698.55 326.32 700.09 324.94 701.69 C286.02 744.32 228.32 764.11 172 767 C171.34 767.33 170.68 767.66 170 768 C163.85 768.1 157.72 768.13 151.57 768.12 C149.62 768.12 147.66 768.12 145.64 768.12 C139.03 768.12 132.42 768.12 125.8 768.11 C121.08 768.11 116.36 768.11 111.64 768.11 C100.12 768.11 88.61 768.11 77.09 768.1 C63.69 768.1 50.29 768.09 36.89 768.09 C12.99 768.09 -10.91 768.08 -34.8 768.08 C-58.02 768.07 -81.24 768.06 -104.46 768.05 C-105.89 768.05 -107.32 768.05 -108.79 768.05 C-115.97 768.05 -123.14 768.05 -130.32 768.05 C-189.88 768.04 -249.44 768.02 -309 768 C-309.05 761.34 -309.08 754.69 -309.11 748.03 C-309.12 746.17 -309.14 744.3 -309.15 742.38 C-309.22 720.49 -306.38 699.23 -301 678 C-300.53 676.08 -300.05 674.17 -299.57 672.19 C-292.07 642.54 -281.3 614.52 -268 587 C-266.91 584.72 -265.82 582.45 -264.69 580.1 C-257.19 564.76 -248.94 550.06 -240.09 535.47 C-236.46 529.45 -232.92 523.38 -229.38 517.31 C-228.67 516.11 -227.96 514.9 -227.23 513.65 C-225.83 511.26 -224.43 508.87 -223.03 506.48 C-221.07 503.12 -219.1 499.76 -217.13 496.4 C-199.45 466.17 -199.45 466.17 -191.78 450.55 C-190.38 447.76 -188.87 445.02 -187.31 442.31 C-184.32 436.73 -182.22 430.94 -180 425 C-179.22 423.27 -178.43 421.54 -177.62 419.75 C-173.6 409.4 -170.9 398.71 -168 388 C-167.34 385.69 -166.68 383.38 -166 381 C-163.25 362.98 -161.58 343.62 -167 326 C-167.6 324 -168.2 322 -168.81 319.94 C-179.33 291.4 -201.71 271.43 -228.89 258.71 C-248.18 250.18 -263.56 247.43 -284.59 247.68 C-285.77 247.68 -285.77 247.68 -291.75 247.71 C-299.29 247.75 -306.83 247.81 -314.38 247.88 C-389.64 248.44 -389.64 248.44 -417 244 C-419.98 243.67 -422.96 243.35 -425.94 243.06 C-447.66 240.69 -469.04 235.71 -485 220 C-491.14 210.79 -492.15 203.07 -490.12 192.38 C-485.15 182.13 -474 177.29 -464 173 C-462.81 172.47 -462.81 172.47 -456.81 169.81 C-450 167 -450 167 -446 167 C-446 166.34 -446 165.68 -446 165 C-441.38 163.02 -436.76 161.06 -432.12 159.12 C-404.52 147.02 -378.84 131.88 -357 111 C-355.16 109.6 -353.33 108.19 -351.44 106.75 C-345.69 99.3 -345.66 93.61 -344.81 84.41 C-340.75 52.24 -323.67 22.51 -302 -1 C-300.82 -2.38 -299.65 -3.76 -298.44 -5.19 C-294.84 -9.18 -291.14 -12.56 -287 -16 C-286.01 -16.82 -285.03 -17.65 -284.01 -18.5 C-198.88 -87.72 -78.53 -68.71 0 0 Z " fill="#FDFDFC" transform="translate(635,256)"/>
<path d="M0 0 C2.4 -0 4.79 -0 7.26 -0 C13.86 -0.01 20.46 -0.01 27.05 -0 C34.19 -0 41.32 -0 48.46 -0.01 C62.42 -0.01 76.38 -0.01 90.33 -0.01 C101.68 -0.01 113.03 -0.01 124.38 -0.01 C125.19 -0.01 125.19 -0.01 129.28 -0.01 C132.57 -0.01 135.86 -0.01 139.14 -0.01 C169.94 -0.01 200.73 -0.01 231.52 -0 C257.92 0 284.31 0 310.71 -0 C341.39 -0.01 372.08 -0.01 402.76 -0.01 C406.04 -0.01 409.31 -0.01 412.59 -0.01 C413.39 -0.01 413.39 -0.01 417.47 -0.01 C428.8 -0.01 440.13 -0.01 451.45 -0.01 C465.27 -0.01 479.08 -0.01 492.9 -0.01 C499.94 -0 506.98 -0 514.03 -0.01 C521.67 -0.01 529.32 -0 536.97 0 C538.07 -0 538.07 -0 543.66 -0.01 C606.52 0.07 663.33 15.75 710.48 59.13 C712.03 60.47 713.58 61.81 715.17 63.19 C756.78 101.18 777.61 158.17 780.27 213.37 C780.64 223.46 780.62 233.55 780.61 243.64 C780.61 244.84 780.61 244.84 780.61 250.9 C780.62 257.5 780.62 264.1 780.61 270.7 C780.61 277.83 780.61 284.97 780.62 292.1 C780.62 306.06 780.62 320.02 780.62 333.98 C780.62 345.33 780.62 356.68 780.62 368.02 C780.62 368.83 780.62 368.83 780.62 372.93 C780.62 376.21 780.62 379.5 780.62 382.79 C780.62 413.58 780.62 444.37 780.61 475.16 C780.61 501.56 780.61 527.96 780.61 554.35 C780.62 585.04 780.62 615.72 780.62 646.41 C780.62 649.68 780.62 652.95 780.62 656.23 C780.62 657.84 780.62 659.45 780.62 661.11 C780.62 672.44 780.62 683.77 780.62 695.1 C780.62 708.91 780.62 722.73 780.62 736.54 C780.61 743.59 780.61 750.63 780.62 757.67 C780.62 765.32 780.61 772.96 780.61 780.61 C780.61 781.71 780.61 781.71 780.62 787.3 C780.54 850.17 764.86 906.98 721.48 954.13 C720.14 955.67 718.8 957.22 717.42 958.81 C683.15 996.34 631.44 1018.34 581.48 1023.13 C575.45 1023.33 569.52 1023.27 563.48 1023.13 C563.48 1022.8 563.48 1022.47 563.48 1022.13 C565.06 1022.04 566.63 1021.95 568.26 1021.87 C621.72 1018.42 669.94 999.46 709.48 963.13 C710.86 961.95 712.25 960.78 713.67 959.56 C743.39 932.77 762.79 893.31 772.48 855.13 C772.48 854.14 772.48 853.15 772.48 852.13 C772.1 853.61 771.71 855.09 771.31 856.62 C771.05 857.6 771.05 857.6 769.73 862.56 C769.48 863.53 769.48 863.53 768.19 868.44 C766.64 873.62 764.78 878.24 762.48 883.13 C761.83 884.64 761.18 886.15 760.51 887.71 C749.89 912.04 736.11 934.11 717.48 953.13 C716.84 953.8 716.84 953.8 713.58 957.21 C692.18 979.24 666.2 996.11 637.48 1007.13 C636.3 1007.59 636.3 1007.59 630.3 1009.94 C621.72 1012.69 618.13 1011.91 610.05 1008.06 C608.21 1007.1 606.37 1006.13 604.48 1005.13 C604.81 1004.47 605.14 1003.81 605.48 1003.13 C607.15 1002.88 608.82 1002.63 610.55 1002.38 C620.87 1000.52 630.12 996.81 639.48 992.13 C640.14 992.13 640.8 992.13 641.48 992.13 C641.48 991.47 641.48 990.81 641.48 990.13 C645.8 988.41 650.13 986.75 654.48 985.13 C660.48 982.13 660.48 982.13 661.48 980.13 C663.19 979.2 664.91 978.27 666.67 977.31 C672.48 974.13 672.48 974.13 678.48 969.13 C679.47 968.8 680.46 968.47 681.48 968.13 C681.81 967.47 682.14 966.81 682.48 966.13 C683 965.86 683 965.86 685.61 964.5 C690.21 961.68 692.99 958.21 696.48 954.13 C698.13 953.14 699.78 952.15 701.48 951.13 C705.89 947.17 708.66 943.31 711.48 938.13 C712.8 936.48 714.12 934.83 715.48 933.13 C716.14 933.13 716.8 933.13 717.48 933.13 C718.14 931.81 718.8 930.49 719.48 929.13 C721.13 927.48 722.78 925.83 724.48 924.13 C725.8 922.15 727.12 920.17 728.48 918.13 C729.14 917.47 729.8 916.81 730.48 916.13 C730.98 914.77 731.47 913.4 731.98 912 C732.48 910.72 732.97 909.44 733.48 908.13 C734.14 908.13 734.8 908.13 735.48 908.13 C736.14 906.15 736.8 904.17 737.48 902.13 C738.8 900.48 740.12 898.83 741.48 897.13 C741.48 896.47 741.48 895.81 741.48 895.13 C742.14 895.13 742.8 895.13 743.48 895.13 C744.7 891.46 745.87 887.78 746.92 884.06 C748.48 879.13 748.48 879.13 751.48 874.13 C753.77 868.16 755.73 862.27 757.48 856.13 C758.14 855.14 758.8 854.15 759.48 853.13 C759.48 852.14 759.48 851.15 759.48 850.13 C761.18 835.58 761.18 835.58 763.48 832.13 C763.48 830.77 763.48 829.4 763.48 828 C763.48 823.13 763.48 823.13 764.47 818.97 C765.56 813.74 765.73 809.04 765.72 803.69 C765.72 801.6 765.73 799.5 765.73 797.33 C765.72 795.04 765.71 792.74 765.71 790.37 C765.71 787.93 765.7 785.48 765.7 782.96 C765.7 776.17 765.69 769.37 765.67 762.58 C765.66 755.26 765.66 747.93 765.65 740.61 C765.64 726.25 765.62 711.9 765.59 697.54 C765.57 685.86 765.55 674.19 765.54 662.51 C765.54 661.68 765.54 661.68 765.53 657.48 C765.53 654.1 765.52 650.72 765.52 647.35 C765.48 615.67 765.42 583.99 765.36 552.31 C765.31 523.37 765.27 494.42 765.24 465.48 C765.21 435.74 765.17 406 765.12 376.26 C765.09 359.57 765.06 342.88 765.05 326.19 C765.03 311.98 765.01 297.76 764.98 283.54 C764.96 276.3 764.94 269.05 764.94 261.8 C764.94 253.93 764.92 246.05 764.89 238.17 C764.9 235.91 764.9 233.65 764.91 231.33 C764.6 170.4 744.52 118.17 702.17 74.44 C688.09 60.59 671.25 48.76 653.48 40.13 C651.34 39.01 649.19 37.9 646.98 36.75 C631.49 29.05 612.9 21.13 595.48 21.13 C593.5 20.47 591.52 19.81 589.48 19.13 C570.57 14.17 551.12 14.86 531.74 14.93 C528.68 14.94 525.62 14.94 522.55 14.94 C514.54 14.95 506.53 14.97 498.52 14.99 C490.34 15.01 482.15 15.02 473.97 15.03 C459.64 15.05 445.3 15.08 430.97 15.11 C424.23 15.13 417.5 15.13 410.76 15.12 C358.11 15.1 305.45 15.09 252.79 15.08 C226.59 15.07 200.39 15.06 174.2 15.05 C151.36 15.04 128.52 15.04 105.69 15.03 C93.59 15.03 81.5 15.03 69.4 15.02 C58.03 15.01 46.66 15.01 35.28 15.01 C31.1 15.01 26.92 15.01 22.74 15.01 C17.05 15 11.35 15 5.66 15.01 C3.99 15 2.32 15 0.6 15 C-5.58 15.01 -11.41 15.11 -17.52 16.13 C-21.18 16.13 -24.85 16.13 -28.52 16.13 C-29.18 16.29 -29.18 16.29 -32.52 17.13 C-34.46 17.25 -36.39 17.37 -38.39 17.5 C-45.64 18.14 -52.42 19.55 -59.52 21.13 C-62.51 21.51 -65.51 21.87 -68.52 22.13 C-68.52 22.79 -68.52 23.45 -68.52 24.13 C-70.17 24.13 -71.82 24.13 -73.52 24.13 C-74.34 24.46 -74.34 24.46 -78.52 26.13 C-80.11 26.6 -81.69 27.08 -83.33 27.56 C-103.01 33.49 -121.84 43.17 -138.52 55.13 C-139.62 55.73 -140.72 56.33 -141.85 56.94 C-146.68 59.82 -150.54 63.58 -154.62 67.41 C-156.8 69.46 -159.05 71.44 -161.33 73.38 C-174.21 84.91 -187.28 97.15 -194.52 113.13 C-195.18 113.79 -195.84 114.45 -196.52 115.13 C-200.45 121.07 -203.7 126.56 -206.52 133.13 C-208.18 136.46 -209.85 139.79 -211.52 143.13 C-212.97 146.75 -214.28 150.43 -215.52 154.13 C-216.18 155.78 -216.84 157.43 -217.52 159.13 C-217.83 160.69 -218.14 162.26 -218.45 163.88 C-219.52 169.13 -219.52 169.13 -221.08 173.75 C-222.46 177.95 -223.07 181.74 -223.52 186.13 C-223.85 187.45 -224.18 188.77 -224.52 190.13 C-224.86 193.46 -225.2 196.79 -225.52 200.13 C-225.85 202.44 -226.18 204.75 -226.52 207.13 C-226.52 208.78 -226.52 210.43 -226.52 212.13 C-226.85 212.46 -227.18 212.79 -227.52 213.13 C-227.62 216.78 -227.65 220.44 -227.65 224.09 C-227.65 226.34 -227.65 228.58 -227.65 230.89 C-227.65 232.07 -227.65 232.07 -227.64 238.06 C-227.65 240.43 -227.65 242.79 -227.65 245.23 C-227.65 247.47 -227.65 249.72 -227.65 252.03 C-227.65 254.11 -227.65 256.19 -227.65 258.33 C-227.52 263.13 -227.52 263.13 -226.52 265.13 C-226.85 266.45 -227.18 267.77 -227.52 269.13 C-227.62 274.65 -227.66 280.16 -227.64 285.69 C-227.65 287.2 -227.65 288.71 -227.65 290.27 C-227.65 298.3 -227.28 306.13 -226.52 314.13 C-226.19 329.87 -226.53 345.56 -227.4 361.28 C-227.52 366.13 -227.52 366.13 -226.52 372.13 C-226.85 373.78 -227.18 375.43 -227.52 377.13 C-227.19 378.12 -226.86 379.11 -226.52 380.13 C-226.37 385.86 -226.54 391.44 -227.01 397.16 C-227.51 404.03 -227.72 410.83 -227.83 417.72 C-227.85 419.02 -227.87 420.31 -227.89 421.65 C-227.95 425.94 -228.01 430.23 -228.07 434.52 C-228.09 436.02 -228.11 437.52 -228.13 439.07 C-228.62 474.92 -228.7 510.76 -228.72 546.61 C-228.72 551.99 -228.72 557.37 -228.73 562.75 C-228.74 579.7 -228.75 596.65 -228.76 613.59 C-228.76 632.98 -228.78 652.36 -228.81 671.74 C-228.83 686.89 -228.84 702.04 -228.84 717.18 C-228.84 726.17 -228.85 735.15 -228.87 744.13 C-228.88 752.54 -228.88 760.95 -228.87 769.36 C-228.87 772.42 -228.88 775.48 -228.89 778.55 C-228.94 795.63 -228.3 812.25 -225.52 829.13 C-225.23 830.93 -224.94 832.74 -224.64 834.59 C-220.88 857.12 -213.72 877.61 -202.52 897.44 C-200.52 901.13 -200.52 901.13 -200.52 904.13 C-199.86 904.13 -199.2 904.13 -198.52 904.13 C-196.88 906.56 -195.34 909.05 -193.83 911.56 C-182.31 930.31 -167.65 946.39 -150.52 960.13 C-149.64 960.87 -149.64 960.87 -145.2 964.63 C-136.2 971.75 -126.96 977.52 -116.64 982.56 C-114.29 983.74 -111.94 984.92 -109.52 986.13 C-109.52 986.79 -109.52 987.45 -109.52 988.13 C-108.3 988.4 -107.08 988.66 -105.83 988.94 C-101.52 990.13 -101.52 990.13 -96.52 993.13 C-92.74 994.42 -88.95 995.71 -85.15 996.94 C-82.6 997.77 -80.08 998.7 -77.58 999.69 C-67.18 1003.37 -56.39 1005.42 -45.52 1007.13 C-44.53 1007.46 -43.54 1007.79 -42.52 1008.13 C-35.8 1009.09 -29.24 1009.51 -22.48 1009.85 C-18.52 1010.13 -18.52 1010.13 -13.52 1011.13 C-11.64 1011.29 -9.76 1011.46 -7.83 1011.63 C-2.52 1012.13 -2.52 1012.13 -0.52 1013.13 C-0.52 1012.47 -0.52 1011.81 -0.52 1011.13 C0.68 1011.31 1.88 1011.5 3.11 1011.69 C7.48 1012.13 7.48 1012.13 13.48 1011.13 C16.29 1011.03 19.1 1011 21.9 1010.99 C22.73 1010.99 22.73 1010.99 26.92 1010.99 C28.67 1010.99 30.43 1011 32.23 1011 C34.02 1011 35.8 1011.01 37.64 1011.01 C51.61 1011.05 65.53 1011.41 79.48 1012.13 C78.61 1020 78.61 1020 77.48 1021.13 C72.98 1021.31 72.98 1021.31 68.48 1021.13 C68.15 1020.47 67.82 1019.81 67.48 1019.13 C67.15 1019.46 66.82 1019.79 66.48 1020.13 C57.89 1021.31 49.32 1021.24 40.67 1021.19 C39.92 1021.19 39.92 1021.19 36.14 1021.18 C31.4 1021.17 26.66 1021.15 21.92 1021.13 C15.65 1021.1 9.38 1021.08 3.1 1021.06 C1.65 1021.06 0.2 1021.05 -1.29 1021.04 C-4.7 1021.03 -8.11 1021.07 -11.52 1021.13 C-11.85 1021.46 -12.18 1021.79 -12.52 1022.13 C18.5 1022.46 49.52 1022.79 81.48 1023.13 C81.48 1013.56 81.48 1003.99 81.48 994.13 C81.81 994.13 82.14 994.13 82.48 994.13 C82.48 1004.03 82.48 1013.93 82.48 1024.13 C67.61 1024.15 52.74 1024.17 37.87 1024.18 C32.81 1024.19 27.76 1024.19 22.71 1024.2 C15.42 1024.21 8.13 1024.22 0.84 1024.22 C-1.4 1024.23 -3.63 1024.23 -5.94 1024.24 C-69.09 1024.24 -126.13 1008.73 -173.52 965.13 C-175.06 963.79 -176.61 962.45 -178.2 961.06 C-219.81 923.08 -240.65 866.08 -243.31 810.88 C-243.68 800.79 -243.65 790.71 -243.64 780.61 C-243.65 778.21 -243.65 775.82 -243.65 773.35 C-243.65 766.75 -243.65 760.15 -243.65 753.56 C-243.65 746.42 -243.65 739.29 -243.65 732.15 C-243.66 718.19 -243.66 704.23 -243.65 690.28 C-243.65 678.93 -243.65 667.58 -243.65 656.23 C-243.65 655.42 -243.65 655.42 -243.65 651.33 C-243.65 648.04 -243.65 644.75 -243.65 641.47 C-243.66 610.67 -243.65 579.88 -243.65 549.09 C-243.64 522.69 -243.64 496.3 -243.65 469.9 C-243.65 439.22 -243.66 408.53 -243.65 377.85 C-243.65 374.57 -243.65 371.3 -243.65 368.02 C-243.65 366.41 -243.65 364.8 -243.65 363.14 C-243.65 351.81 -243.65 340.48 -243.65 329.16 C-243.66 315.34 -243.66 301.53 -243.65 287.71 C-243.65 280.67 -243.65 273.63 -243.65 266.58 C-243.65 258.94 -243.65 251.29 -243.64 243.64 C-243.65 241.44 -243.65 239.23 -243.65 236.95 C-243.57 174.09 -227.89 117.27 -184.52 70.13 C-183.18 68.58 -181.84 67.03 -180.45 65.44 C-142.47 23.83 -85.47 3 -30.27 0.34 C-20.18 -0.03 -10.1 -0.01 0 0 Z " fill="#2a2d34" transform="translate(243.517333984375,-0.126983642578125)"/>
<path d="M0 0 C11.63 8.14 17.8 20.62 24.75 32.62 C36.02 51.91 47.33 70.51 61.59 87.78 C77.51 107.14 77.51 107.14 76.75 122.62 C75.24 130.91 73.48 139.3 67.75 145.62 C62.56 146.46 58.21 146.69 53 146.62 C51.4 146.63 49.8 146.64 48.16 146.65 C44.34 146.67 40.53 146.67 36.71 146.65 C30.08 146.63 23.45 146.66 16.82 146.7 C8.86 146.75 0.9 146.78 -7.06 146.81 C-8.6 146.82 -10.14 146.83 -11.72 146.84 C-37.62 146.94 -63.64 146.84 -89.25 142.62 C-92.23 142.29 -95.21 141.98 -98.19 141.69 C-119.91 139.31 -141.29 134.34 -157.25 118.62 C-163.39 109.41 -164.4 101.69 -162.38 91 C-157.4 80.76 -146.25 75.91 -136.25 71.62 C-133.88 70.57 -131.51 69.52 -129.06 68.44 C-122.25 65.62 -122.25 65.62 -118.25 65.62 C-118.25 64.97 -118.25 64.31 -118.25 63.62 C-113.63 61.65 -109.01 59.69 -104.38 57.75 C-73.97 44.41 -47.1 27.47 -23.62 4 C-16.66 -2.97 -9.52 -3.08 0 0 Z " fill="#FD8206" transform="translate(307.25,357.375)"/>
<path d="M0 0 C1 4 1 4 1 9 C6.25 12.94 11.48 14.22 17.75 16.19 C52 27.41 79.49 46.9 97 79 C114.54 119.8 104.62 160.73 89.22 200.51 C77.88 228.54 63.57 255.34 48.69 281.62 C44.99 288.19 41.42 294.82 37.9 301.49 C36.17 304.68 34.34 307.81 32.5 310.94 C28.34 318.15 24.64 325.51 21 333 C20.01 335.03 19.02 337.07 18 339.16 C13.07 349.35 8.29 359.52 4 370 C3.37 371.51 2.74 373.02 2.09 374.57 C1.52 375.93 0.96 377.29 0.38 378.69 C0.09 379.37 0.09 379.37 -1.35 382.82 C-3.07 387.18 -4.56 391.55 -6 396 C-6.6 397.87 -7.21 399.73 -7.83 401.65 C-18.2 434.57 -23.19 465.36 -23.06 499.81 C-23.06 502.14 -23.05 504.46 -23.05 506.86 C-23.04 512.57 -23.02 518.29 -23 524 C-33.56 524 -44.12 524 -55 524 C-57.1 498.85 -54.19 474.44 -48 450 C-47.53 448.08 -47.05 446.17 -46.57 444.19 C-39.07 414.54 -28.3 386.52 -15 359 C-14.45 357.86 -14.45 357.86 -11.69 352.1 C-4.19 336.76 4.06 322.06 12.91 307.47 C16.54 301.45 20.08 295.38 23.62 289.31 C24.33 288.11 25.04 286.9 25.77 285.65 C27.17 283.26 28.57 280.87 29.97 278.48 C31.93 275.12 33.9 271.76 35.87 268.4 C53.55 238.17 53.55 238.17 61.22 222.55 C62.62 219.76 64.13 217.02 65.69 214.31 C68.68 208.73 70.78 202.94 73 197 C73.78 195.27 74.57 193.53 75.38 191.75 C79.4 181.4 82.1 170.71 85 160 C85.66 157.69 86.32 155.38 87 153 C89.75 134.98 91.42 115.62 86 98 C85.4 96 84.8 94 84.19 91.94 C73.67 63.4 51.29 43.43 24.11 30.71 C13.87 26.18 3.91 22.53 -7 20 C-5 14 -5 14 -2 8 C-1.28 5.35 -0.6 2.68 0 0 Z " fill="#EFF3FA" transform="translate(382,484)"/>
<path d="M0 0 C0.33 0 0.66 0 1 0 C-1.67 37.92 -26.92 75.74 -52 103 C-53.34 104.55 -54.68 106.09 -56.06 107.69 C-94.98 150.32 -152.68 170.11 -209 173 C-209.66 173.33 -210.32 173.66 -211 174 C-217.15 174.1 -223.28 174.13 -229.43 174.12 C-231.38 174.12 -233.34 174.12 -235.36 174.12 C-241.97 174.12 -248.58 174.12 -255.2 174.11 C-259.92 174.11 -264.64 174.11 -269.36 174.11 C-280.88 174.11 -292.39 174.11 -303.91 174.1 C-317.31 174.1 -330.71 174.09 -344.11 174.09 C-368.01 174.09 -391.91 174.08 -415.8 174.08 C-439.02 174.07 -462.24 174.06 -485.46 174.05 C-486.89 174.05 -488.32 174.05 -489.79 174.05 C-496.97 174.05 -504.14 174.05 -511.32 174.05 C-570.88 174.04 -630.44 174.02 -690 174 C-690 169.38 -690 164.76 -690 160 C-687.57 160 -685.15 160 -682.64 159.99 C-624.93 159.94 -567.22 159.86 -509.51 159.77 C-502.4 159.76 -495.28 159.75 -488.17 159.74 C-486.75 159.74 -485.34 159.73 -483.88 159.73 C-460.99 159.7 -438.11 159.67 -415.22 159.65 C-391.71 159.63 -368.2 159.59 -344.69 159.55 C-331.5 159.53 -318.31 159.51 -305.11 159.5 C-292.68 159.5 -280.25 159.48 -267.81 159.45 C-263.27 159.44 -258.72 159.43 -254.17 159.43 C-199.32 159.45 -199.32 159.45 -177.31 153.81 C-168.5 152.83 -164.43 154.88 -156.94 159.24 C-151.04 161.87 -147.13 160.73 -141.18 158.7 C-139.95 158.18 -138.71 157.66 -137.44 157.12 C-136.2 156.61 -134.96 156.1 -133.68 155.57 C-116.07 148.06 -99.39 139.43 -84 128 C-82.91 127.22 -81.81 126.44 -80.68 125.64 C-63.48 112.89 -48.02 96.68 -36 79 C-35.15 77.8 -34.29 76.59 -33.41 75.35 C-24.26 62.14 -16.88 47.96 -11 33 C-10.2 31.21 -9.39 29.41 -8.56 27.56 C-5.05 18.56 -2.54 9.32 0 0 Z " fill="#C6DCF9" transform="translate(1016,850)"/>
<path d="M0 0 C1.65 1.65 3.3 3.3 5 5 C12.69 11.05 20.71 13.44 30 16 C31.88 16.54 33.75 17.07 35.69 17.62 C55.81 22.01 75.63 22.52 96.12 22.44 C97.65 22.43 99.18 22.43 100.75 22.43 C125.7 22.35 150.24 21.19 175 18 C175.96 17.88 175.96 17.88 180.84 17.27 C200.28 14.83 219.66 12.13 239 9 C239.63 35.21 239.63 35.21 231 45 C225.81 45.83 221.46 46.07 216.25 46 C214.65 46.01 213.05 46.02 211.41 46.03 C207.59 46.04 203.78 46.04 199.96 46.02 C193.33 46 186.7 46.03 180.07 46.07 C172.11 46.13 164.15 46.16 156.19 46.19 C154.65 46.19 153.11 46.2 151.53 46.21 C125.63 46.31 99.61 46.21 74 42 C71.02 41.67 68.04 41.35 65.06 41.06 C43.34 38.69 21.96 33.71 6 18 C1.85 11.78 0 7.5 0 0 Z " fill="#E85B03" transform="translate(144,458)"/>
<path d="M0 0 C8.12 5.28 12.5 12.22 15.52 21.29 C16.47 34.34 15.93 44.32 8.84 55.54 C0.75 64.69 -8.93 68.99 -20.98 69.79 C-33.42 68.96 -39.75 65.13 -48.48 56.29 C-56.16 45.72 -56.34 34.91 -55.48 22.29 C-51.99 11.18 -44.44 2.58 -34.29 -3.02 C-22.12 -8.41 -11.26 -6.15 0 0 Z " fill="#191F29" transform="translate(488.4765625,326.70703125)"/>
<path d="M0 0 C2.38 -0 4.76 -0.01 7.21 -0.01 C13.79 -0.02 20.38 -0.02 26.97 -0.03 C34.08 -0.03 41.19 -0.04 48.3 -0.05 C65.47 -0.07 82.64 -0.08 99.81 -0.09 C107.9 -0.09 116 -0.1 124.1 -0.1 C151.04 -0.12 177.99 -0.13 204.93 -0.14 C211.92 -0.14 218.91 -0.15 225.89 -0.15 C226.76 -0.15 226.76 -0.15 231.16 -0.15 C259.25 -0.16 287.34 -0.18 315.43 -0.22 C344.32 -0.25 373.2 -0.27 402.09 -0.27 C418.29 -0.27 434.49 -0.28 450.69 -0.31 C464.49 -0.33 478.3 -0.34 492.1 -0.33 C499.13 -0.32 506.16 -0.32 513.19 -0.34 C586.65 -0.51 654.36 8.45 710.55 60.15 C712.09 61.49 713.64 62.83 715.23 64.21 C727.45 75.37 745.44 93.73 749.55 110.15 C745.55 106.15 745.55 106.15 742.3 101.02 C736 91.17 728.44 82.74 720.55 74.15 C719.35 72.74 718.15 71.34 716.92 69.9 C713.35 65.93 709.63 62.58 705.55 59.15 C703.75 57.6 701.96 56.05 700.11 54.46 C672.19 31.42 629.13 5.49 591.55 7.15 C586.75 7.15 583.16 7.07 578.55 6.15 C578.22 5.82 577.89 5.49 577.55 5.15 C574.91 5.15 572.27 5.15 569.55 5.15 C569.22 4.49 568.89 3.83 568.55 3.15 C567.89 3.48 567.23 3.81 566.55 4.15 C562.55 4.23 558.54 4.23 554.55 4.15 C554.22 3.82 553.89 3.49 553.55 3.15 C549.76 3.06 545.96 3.04 542.17 3.05 C539.72 3.05 537.26 3.06 534.73 3.06 C534.07 3.06 534.07 3.06 530.72 3.07 C526.6 3.08 522.48 3.09 518.36 3.1 C508.12 3.11 497.88 3.13 487.64 3.16 C479 3.18 470.36 3.19 461.71 3.2 C457.64 3.21 453.57 3.22 449.5 3.23 C447.04 3.24 444.58 3.24 442.05 3.24 C440.96 3.25 440.96 3.25 435.45 3.26 C430.55 3.15 430.55 3.15 428.55 2.15 C428.55 2.81 428.55 3.47 428.55 4.15 C427.06 4.07 425.57 4 424.03 3.93 C386.35 2.21 386.35 2.21 380.55 4.15 C375.35 4.05 370.17 3.9 364.97 3.72 C344.06 3.12 323.15 3.03 302.23 3 C301.36 3 301.36 3 296.98 3 C285.83 2.98 274.68 2.98 263.53 2.98 C257.66 2.98 251.79 2.98 245.92 2.97 C225.41 2.97 204.91 2.96 184.41 2.96 C165.3 2.96 146.2 2.95 127.1 2.94 C110.65 2.92 94.2 2.92 77.75 2.92 C67.94 2.92 58.13 2.92 48.33 2.91 C39.15 2.9 29.97 2.9 20.79 2.9 C17.41 2.9 14.04 2.9 10.66 2.9 C6.07 2.89 1.49 2.89 -3.09 2.9 C-5.67 2.9 -8.24 2.9 -10.89 2.9 C-12.72 2.98 -14.56 3.06 -16.45 3.15 C-16.78 3.81 -17.11 4.47 -17.45 5.15 C-19.1 5.15 -20.75 5.15 -22.45 5.15 C-22.12 4.16 -21.79 3.17 -21.45 2.15 C-26.07 2.15 -30.69 2.15 -35.45 2.15 C-35.45 1.82 -35.45 1.49 -35.45 1.15 C-23.64 -0.13 -11.86 -0 0 0 Z " fill="#459FFD" transform="translate(242.45436096191406,-0.1471710205078125)"/>
<path d="M0 0 C2.38 -0 4.76 -0.01 7.21 -0.01 C13.79 -0.02 20.38 -0.02 26.97 -0.03 C34.08 -0.03 41.19 -0.04 48.3 -0.05 C65.47 -0.07 82.64 -0.08 99.81 -0.09 C107.9 -0.09 116 -0.1 124.1 -0.1 C151.04 -0.12 177.99 -0.13 204.93 -0.14 C211.92 -0.14 218.91 -0.15 225.89 -0.15 C226.76 -0.15 226.76 -0.15 231.16 -0.15 C259.25 -0.16 287.34 -0.18 315.43 -0.22 C344.32 -0.25 373.2 -0.27 402.09 -0.27 C418.29 -0.27 434.49 -0.28 450.69 -0.31 C464.49 -0.33 478.3 -0.34 492.1 -0.33 C499.13 -0.32 506.16 -0.32 513.19 -0.34 C586.65 -0.51 654.36 8.45 710.55 60.15 C712.09 61.49 713.64 62.83 715.23 64.21 C727.45 75.37 745.44 93.73 749.55 110.15 C745.55 106.15 745.55 106.15 742.3 101.02 C736 91.17 728.44 82.74 720.55 74.15 C719.35 72.74 718.15 71.34 716.92 69.9 C713.35 65.93 709.63 62.58 705.55 59.15 C703.75 57.6 701.96 56.05 700.11 54.46 C672.19 31.42 629.13 5.49 591.55 7.15 C586.75 7.15 583.16 7.07 578.55 6.15 C578.22 5.82 577.89 5.49 577.55 5.15 C574.91 5.15 572.27 5.15 569.55 5.15 C569.22 4.49 568.89 3.83 568.55 3.15 C556.48 1.69 544.3 2.01 532.17 2.02 C529.81 2.02 527.45 2.02 525.02 2.02 C518.5 2.01 511.98 2.01 505.45 2.02 C498.41 2.02 491.37 2.02 484.33 2.01 C470.54 2.01 456.76 2.01 442.98 2.01 C431.78 2.01 420.58 2.01 409.39 2.01 C408.59 2.01 408.59 2.01 404.56 2.01 C401.32 2.01 398.08 2.01 394.85 2.01 C364.5 2.01 334.16 2.01 303.82 2.02 C277.76 2.02 251.71 2.02 225.65 2.02 C195.4 2.01 165.15 2.01 134.9 2.01 C131.68 2.01 128.46 2.01 125.23 2.01 C123.65 2.01 122.06 2.01 120.43 2.01 C109.24 2.01 98.04 2.01 86.85 2.01 C73.22 2.01 59.6 2.01 45.97 2.01 C39.01 2.02 32.06 2.02 25.1 2.01 C17.58 2.01 10.05 2.02 2.53 2.02 C0.31 2.02 -1.92 2.02 -4.21 2.01 C-6.21 2.02 -8.21 2.02 -10.26 2.02 C-12 2.02 -13.74 2.02 -15.53 2.02 C-19.45 2.15 -19.45 2.15 -21.45 3.15 C-26.12 2.86 -30.79 2.53 -35.45 2.15 C-35.45 1.82 -35.45 1.49 -35.45 1.15 C-23.64 -0.13 -11.86 -0 0 0 Z " fill="#74B8FB" transform="translate(242.45436096191406,-0.1471710205078125)"/>
<path d="M0 0 C0.99 0.33 1.98 0.66 3 1 C1.14 12.14 -4.91 22.01 -10 32 C-10.82 33.6 -11.63 35.21 -12.47 36.86 C-22.36 56.03 -33.49 74.46 -44.5 93 C-46.92 97.07 -49.33 101.14 -51.75 105.21 C-53.8 108.66 -55.85 112.11 -57.9 115.57 C-83.22 158.52 -107.47 205.65 -117 255 C-117.62 257.56 -118.24 260.12 -118.88 262.75 C-123.86 285.17 -125.66 308.12 -127 331 C-128.98 331 -130.96 331 -133 331 C-132 325 -132 325 -130 320 C-129.34 320 -128.68 320 -128 320 C-128.02 318.14 -128.04 316.29 -128.06 314.38 C-128 308 -128 308 -127 302 C-127.66 302 -128.32 302 -129 302 C-129 295 -129 295 -127.44 290.56 C-125.91 285.72 -126.15 282.93 -127 278 C-126 275 -126 275 -124 273 C-124 271.58 -124 270.15 -124 268.69 C-124 264 -124 264 -122 259 C-121.55 256.63 -121.09 254.26 -120.62 251.81 C-119.28 245.34 -117.48 240.06 -115 234 C-115 232.02 -115 230.04 -115 228 C-113.67 225.33 -112.33 222.67 -111 220 C-110.83 219.01 -110.83 219.01 -110 214 C-109.34 214 -108.68 214 -108 214 C-108 212.35 -108 210.7 -108 209 C-107.01 207.35 -106.02 205.7 -105 204 C-102.86 198.95 -101.08 194.38 -100 189 C-99.34 189 -98.68 189 -98 189 C-98 187.02 -98 185.04 -98 183 C-97.01 182.01 -96.02 181.02 -95 180 C-93 176 -93 176 -93 173 C-92.34 173 -91.68 173 -91 173 C-90.67 171.35 -90.34 169.7 -90 168 C-88.04 163.65 -86.04 159.32 -84 155 C-83.01 152.69 -82.02 150.38 -81 148 C-80.34 148 -79.68 148 -79 148 C-78.67 146.35 -78.34 144.7 -78 143 C-77.34 143 -76.68 143 -76 143 C-75.75 141.6 -75.5 140.19 -75.25 138.75 C-74 134 -74 134 -70 130 C-67.8 125.97 -66.11 122.46 -65 118 C-64.01 117.34 -63.02 116.68 -62 116 C-62 115.34 -62 114.68 -62 114 C-61.01 114 -60.02 114 -59 114 C-58.67 112.35 -58.34 110.7 -58 109 C-55.89 104.19 -53.48 99.65 -51 95 C-50.34 95 -49.68 95 -49 95 C-48.34 92.69 -47.68 90.38 -47 88 C-46.34 88 -45.68 88 -45 88 C-44.34 86.02 -43.68 84.04 -43 82 C-42.34 82 -41.68 82 -41 82 C-39.94 79.36 -38.9 76.7 -38 74 C-37.34 74 -36.68 74 -36 74 C-36 73.34 -36 72.68 -36 72 C-35.34 72 -34.68 72 -34 72 C-34 70.02 -34 68.04 -34 66 C-32.68 65.67 -31.36 65.34 -30 65 C-29.67 63.35 -29.34 61.7 -29 60 C-28.84 59.67 -28.84 59.67 -28 58 C-27.34 58 -26.68 58 -26 58 C-25.67 56.35 -25.34 54.7 -25 53 C-24.84 52.67 -24.84 52.67 -24 51 C-23.34 51 -22.68 51 -22 51 C-21.67 48.69 -21.34 46.38 -21 44 C-20.01 42.02 -19.02 40.04 -18 38 C-17.34 38 -16.68 38 -16 38 C-15.67 37.01 -15.67 37.01 -14 32 C-12.7 29.32 -11.37 26.65 -10 24 C-9.67 23.34 -9.34 22.68 -9 22 C-8.01 20.35 -7.02 18.7 -6 17 C-5.67 15.35 -5.34 13.7 -5 12 C-4.01 11.01 -3.02 10.02 -2 9 C-1.25 6.02 -0.57 3.02 0 0 Z " fill="#191d24" transform="translate(452,679)"/>
<path d="M0 0 C0.33 0 0.66 0 1 0 C1.81 30.59 2.15 61.16 2.15 91.77 C2.15 96.25 2.15 100.72 2.16 105.2 C2.16 117.2 2.17 129.2 2.17 141.21 C2.17 148.71 2.17 156.22 2.17 163.72 C2.18 188.57 2.19 213.43 2.19 238.28 C2.19 239.61 2.19 240.94 2.19 242.31 C2.19 242.98 2.19 242.98 2.19 246.35 C2.18 268.06 2.19 289.78 2.21 311.5 C2.22 333.86 2.23 356.23 2.23 378.6 C2.23 391.13 2.23 403.66 2.24 416.19 C2.25 427.93 2.25 439.67 2.24 451.4 C2.24 455.72 2.25 460.04 2.25 464.36 C2.26 470.22 2.26 476.08 2.25 481.95 C2.25 483.68 2.26 485.41 2.26 487.2 C2.25 491.13 2.14 495.07 2 499 C1.34 499.33 0.68 499.66 0 500 C-1.12 484.62 -1.12 484.62 0 479 C-0.09 475.56 -0.24 472.12 -0.43 468.69 C-1.24 450.46 -1.14 432.25 -1.13 414.01 C-1.13 410.01 -1.13 406.02 -1.13 402.02 C-1.14 391.23 -1.14 380.44 -1.13 369.65 C-1.13 358.3 -1.13 346.96 -1.14 335.61 C-1.14 316.54 -1.14 297.47 -1.13 278.4 C-1.12 256.45 -1.13 234.5 -1.13 212.55 C-1.14 193.63 -1.14 174.7 -1.13 155.78 C-1.13 144.51 -1.13 133.24 -1.14 121.98 C-1.14 111.36 -1.14 100.75 -1.13 90.13 C-1.13 86.27 -1.13 82.41 -1.13 78.55 C-1.15 52.35 -0.73 26.19 0 0 Z " fill="#111318" transform="translate(1007,308)"/>
<path d="M0 0 C0.33 0 0.66 0 1 0 C1 1.84 1.01 3.69 1.01 5.59 C1.12 50.51 1.22 95.43 1.34 140.35 C1.39 162.08 1.45 183.8 1.5 205.53 C1.54 224.47 1.59 243.41 1.64 262.35 C1.66 272.38 1.69 282.4 1.71 292.42 C1.73 301.87 1.75 311.32 1.78 320.77 C1.79 324.22 1.8 327.68 1.8 331.13 C1.83 347.88 1.95 364.6 2.78 381.34 C3.05 387.02 3.13 392.68 3.13 398.37 C3.13 400.36 3.14 402.36 3.14 404.41 C3.13 406.4 3.13 408.39 3.12 410.44 C3.13 412.51 3.13 414.59 3.14 416.73 C3.14 418.7 3.13 420.66 3.13 422.68 C3.13 424.45 3.13 426.22 3.13 428.04 C3 432 3 432 2 433 C1.91 437.81 1.9 442.6 1.92 447.4 C1.92 448.92 1.92 450.44 1.93 452 C1.93 455.31 1.94 458.62 1.96 461.94 C1.97 467.17 1.98 472.4 1.99 477.63 C2.02 492.5 2.05 507.38 2.1 522.25 C2.12 531.34 2.14 540.42 2.15 549.51 C2.16 552.98 2.17 556.46 2.18 559.93 C2.2 564.78 2.21 569.62 2.21 574.47 C2.22 575.92 2.23 577.37 2.24 578.86 C2.23 588.77 2.23 588.77 0 591 C0 395.97 0 200.94 0 0 Z " fill="#1a1d23" transform="translate(1009,215)"/>
<path d="M0 0 C0.66 0.33 1.32 0.66 2 1 C2.16 4.21 2.19 7.43 2.16 10.65 C2.15 12.63 2.14 14.6 2.13 16.63 C2.11 18.71 2.08 20.79 2.06 22.94 C2.03 27.03 2 31.12 1.97 35.21 C1.95 37.04 1.94 38.87 1.92 40.75 C2 45 2 45 3 47 C2.67 48.32 2.34 49.64 2 51 C1.9 56.53 1.86 62.04 1.88 67.56 C1.87 69.07 1.87 70.59 1.86 72.14 C1.87 80.17 2.24 88 3 96 C3.33 111.74 2.98 127.43 2.12 143.15 C2 148 2 148 3 154 C2.67 155.65 2.34 157.3 2 159 C2.33 159.99 2.66 160.98 3 162 C3.15 167.73 2.97 173.31 2.51 179.03 C2.01 185.91 1.8 192.71 1.69 199.6 C1.67 200.9 1.65 202.2 1.63 203.54 C1.57 207.83 1.51 212.12 1.46 216.41 C1.44 217.91 1.42 219.42 1.39 220.97 C0.91 256.72 0.78 292.47 0.7 328.23 C0.67 337.24 0.65 346.25 0.62 355.25 C0.57 372.19 0.53 389.12 0.48 406.05 C0.43 425.39 0.38 444.72 0.32 464.05 C0.21 503.7 0.1 543.35 0 583 C-0.33 583 -0.66 583 -1 583 C-1.03 527.83 -1.05 472.67 -1.06 417.5 C-1.06 415.46 -1.06 413.42 -1.06 411.32 C-1.09 304.07 -1.04 196.82 -0.5 89.56 C-0.49 87.19 -0.48 84.82 -0.46 82.38 C-0.32 54.92 -0.17 27.46 0 0 Z " fill="#20242b" transform="translate(14,218)"/>
<path d="M0 0 C0.5 0.33 0.5 0.33 3 2 C3 3.98 3 5.96 3 8 C3.66 8 4.32 8 5 8 C5.33 10.31 5.66 12.62 6 15 C6.66 15 7.32 15 8 15 C8.33 16.98 8.66 18.96 9 21 C9.66 22.32 10.32 23.64 11 25 C11.66 26.98 12.32 28.96 13 31 C13.66 31.33 14.32 31.66 15 32 C15 33.32 15 34.64 15 36 C15.66 36 16.32 36 17 36 C22.69 45.75 22.69 45.75 24 51 C24.99 51.66 25.98 52.32 27 53 C27 54.32 27 55.64 27 57 C27.66 57 28.32 57 29 57 C29 57.66 29 58.32 29 59 C29.66 59.33 30.32 59.66 31 60 C31.66 61.65 32.32 63.3 33 65 C34.32 65.33 35.64 65.66 37 66 C37 66.99 37 67.98 37 69 C37.66 69 38.32 69 39 69 C39.99 70.98 40.98 72.96 42 75 C42.33 75.16 42.33 75.16 44 76 C44 76.66 44 77.32 44 78 C44.66 78 45.32 78 46 78 C46 78.66 46 79.32 46 80 C46.99 80 47.98 80 49 80 C49 80.99 49 81.98 49 83 C50.32 83.66 51.64 84.32 53 85 C53.5 85.83 53.5 85.83 56 90 C57.32 90.66 58.64 91.32 60 92 C60.66 93.32 61.32 94.64 62 96 C62.99 96 63.98 96 65 96 C65 96.99 65 97.98 65 99 C65.99 99 66.98 99 68 99 C68 99.66 68 100.32 68 101 C68.66 101 69.32 101 70 101 C70 101.66 70 102.32 70 103 C70.66 103.33 70.66 103.33 74 105 C74.66 106.32 75.32 107.64 76 109 C77.65 109.33 79.3 109.66 81 110 C81 110.99 81 111.98 81 113 C82.65 113.66 84.3 114.32 86 115 C89.81 117.5 89.81 117.5 93 120 C93 120.66 93 121.32 93 122 C93.99 121.67 94.98 121.34 96 121 C100 125 100 125 100 127 C100.99 127 101.98 127 103 127 C103 127.66 103 128.32 103 129 C107 131 107 131 113 133 C113.33 133.66 113.66 134.32 114 135 C114.99 135.33 115.98 135.66 117 136 C117 136.66 117 137.32 117 138 C117.99 137.67 118.98 137.34 120 137 C120.99 137.99 121.98 138.98 123 140 C123 140.66 123 141.32 123 142 C124.32 142 125.64 142 127 142 C127.33 142.66 127.66 143.32 128 144 C128.99 144 129.98 144 131 144 C131.33 145.32 131.66 146.64 132 148 C133.32 147.67 134.64 147.34 136 147 C136 147.66 136 148.32 136 149 C137.65 148.67 139.3 148.34 141 148 C141.33 148.99 141.66 149.98 142 151 C143.65 152.32 145.3 153.64 147 155 C138.39 157.15 128.26 148.28 121 144 C113.89 139.49 106.92 134.8 100 130 C98.73 129.12 97.45 128.25 96.14 127.35 C81.01 116.78 67.26 104.81 54 92 C52.21 90.27 50.41 88.53 48.56 86.75 C43.72 81.71 39.35 76.47 35 71 C33.72 69.49 32.44 67.99 31.12 66.44 C18.22 49.42 0 22.07 0 0 Z " fill="#191d24" transform="translate(703,848)"/>
<path d="M0 0 C1.55 0.14 3.09 0.29 4.69 0.44 C8.91 0.81 13.14 1.15 17.38 1.44 C24 2 24 2 30.05 2.96 C64.41 8.09 99.8 6.11 134.41 5.81 C141.81 5.75 149.21 5.71 156.61 5.68 C158.87 5.65 161.12 5.63 163.45 5.6 C174.48 5.56 183.71 5.9 194 10 C192 12 192 12 187 13 C186.67 12.67 186.67 12.67 185 11 C181.52 10.82 178.02 10.78 174.53 10.79 C172.3 10.79 170.06 10.8 167.75 10.8 C165.31 10.81 162.87 10.83 160.35 10.84 C157.85 10.85 155.35 10.85 152.77 10.86 C146.09 10.87 139.4 10.89 132.72 10.92 C123.37 10.96 114.02 10.99 104.67 11.01 C99.7 11.02 94.72 11.04 89.75 11.06 C54.65 11.16 54.65 11.16 46 9 C46 8.67 46 8.34 46 8 C44.49 7.94 42.99 7.88 41.43 7.82 C39.45 7.73 37.48 7.65 35.44 7.56 C33.48 7.48 31.52 7.4 29.5 7.32 C24 7 24 7 17 6 C16.01 6.33 15.02 6.66 14 7 C13.67 6.01 13.34 5.02 13 4 C9.35 3.55 5.68 3.21 2 3 C2 2.34 2 1.68 2 1 C1.34 0.67 0.68 0.34 0 0 Z " fill="#252a32" transform="translate(194,497)"/>
<path d="M0 0 C0.33 0 0.66 0 1 0 C1.76 7.44 2.13 14.75 2.13 22.22 C2.13 24.43 2.13 26.64 2.14 28.92 C2.13 31.32 2.13 33.72 2.13 36.19 C2.13 38.74 2.13 41.28 2.13 43.91 C2.14 50.87 2.14 57.83 2.13 64.79 C2.13 72.07 2.13 79.35 2.14 86.63 C2.14 98.85 2.14 111.07 2.13 123.29 C2.12 137.43 2.13 151.57 2.13 165.72 C2.14 177.86 2.14 190 2.13 202.14 C2.13 209.39 2.13 216.64 2.14 223.89 C2.14 231.96 2.13 240.03 2.13 248.1 C2.13 250.52 2.13 252.94 2.14 255.43 C2.13 257.62 2.13 259.8 2.13 262.05 C2.13 263.95 2.13 265.86 2.13 267.83 C2 272 2 272 1 273 C0.87 276.95 0.82 280.91 0.79 284.86 C0.77 287.43 0.75 289.99 0.73 292.63 C0.72 295.45 0.7 298.27 0.68 301.1 C0.66 303.97 0.64 306.83 0.62 309.7 C0.57 317.27 0.52 324.84 0.47 332.4 C0.42 340.12 0.36 347.83 0.31 355.55 C0.2 370.7 0.1 385.85 0 401 C-0.33 401 -0.66 401 -1 401 C-1.02 358.76 -1.04 316.51 -1.05 274.27 C-1.06 254.65 -1.06 235.03 -1.08 215.4 C-1.09 198.26 -1.09 181.12 -1.09 163.99 C-1.1 154.94 -1.1 145.9 -1.11 136.86 C-1.14 91.23 -0.83 45.62 0 0 Z " fill="#181b20" transform="translate(15,405)"/>
<path d="M0 0 C4.16 4.16 3 11.52 3 17 C3.66 17 4.32 17 5 17 C5.13 28.98 5.13 28.98 4.44 34.56 C4 39 4 39 4.5 44.88 C5.11 52.37 5.41 59.18 2 66 C2 67.98 2 69.96 2 72 C1.67 72.66 1.34 73.32 1 74 C1.66 74.33 2.32 74.66 3 75 C2.73 81.11 1.8 84.41 -1 90 C-0.67 91.32 -0.34 92.64 0 94 C-0.99 97 -1.99 100 -3 103 C-3 104.98 -3 106.96 -3 109 C-3.66 109 -4.32 109 -5 109 C-4.96 110.63 -4.92 112.26 -4.88 113.94 C-4.92 115.61 -4.96 117.28 -5 119 C-5.33 119.16 -5.33 119.16 -7 120 C-7.34 122.67 -7.67 125.33 -8 128 C-8.33 128.33 -8.33 128.33 -10 130 C-10 131.98 -10 133.96 -10 136 C-10.99 137.65 -11.98 139.3 -13 141 C-12.84 141.83 -12.84 141.83 -12 146 C-12.66 145.67 -13.32 145.34 -14 145 C-14.1 146.22 -14.21 147.43 -14.31 148.69 C-15 153 -15 153 -18 158 C-19.04 161.65 -20.08 165.31 -21 169 C-21.66 170.98 -22.32 172.96 -23 175 C-23.66 175 -24.32 175 -25 175 C-25 167.83 -23.71 163.37 -21.44 156.62 C-17.24 143.84 -13.44 131.01 -10 118 C-9.54 116.25 -9.07 114.5 -8.59 112.7 C-1.46 83.75 0.17 53.88 0.06 24.19 C0.06 23.02 0.06 23.02 0.05 17.14 C0.04 11.43 0.02 5.71 0 0 Z " fill="#191d24" transform="translate(757,491)"/>
<path d="M0 0 C0.33 0 0.66 0 1 0 C-1.67 37.92 -26.92 75.74 -52 103 C-52.67 103.77 -52.67 103.77 -56.06 107.69 C-83.22 137.43 -122.36 157.43 -161 167 C-162.65 167 -164.3 167 -166 167 C-161.98 164.32 -157.66 163.48 -153.04 162.21 C-146.23 160.17 -139.63 157.56 -133 155 C-131.72 154.54 -130.44 154.08 -129.12 153.61 C-92.05 139.18 -58.57 111.5 -36 79 C-35.14 77.79 -34.28 76.58 -33.39 75.33 C-24.26 62.11 -16.88 47.95 -11 33 C-10.6 32.1 -10.6 32.1 -8.56 27.56 C-5.05 18.56 -2.54 9.32 0 0 Z " fill="#6f7785" transform="translate(1016,850)"/>
<path d="M0 0 C4 3 4 3 5 9 C7.38 14.48 10.21 19.72 13 25 C13.68 26.31 14.37 27.62 15.07 28.97 C22.98 43.58 32.6 56.91 44 69 C45.05 70.26 46.1 71.52 47.19 72.81 C76.03 104.49 117.23 128.42 159 138 C159 138.33 159 138.66 159 139 C121.08 136.33 83.26 111.08 56 86 C55.23 85.33 55.23 85.33 51.31 81.94 C28.52 61.13 10.49 31.85 0 3 C0 2.01 0 1.02 0 0 Z " fill="#747c89" transform="translate(15,878)"/>
<path d="M0 0 C0 10 0 10 -2 14 C-2.33 15.65 -2.66 17.3 -3 19 C-3.66 19 -4.32 19 -5 19 C-4.34 19.66 -3.68 20.32 -3 21 C-3 26 -3 26 -4 28 C-6.21 57.68 -4.93 87.59 -4.09 117.31 C-4.03 119.87 -4 122.44 -4 125 C-3.99 126.47 -3.98 127.94 -3.96 129.45 C-3.96 131.18 -3.95 132.91 -3.94 134.69 C-3.93 136.4 -3.91 138.12 -3.9 139.89 C-4 145 -4 145 -4.54 149.47 C-5.07 154.66 -4.83 159.55 -4.5 164.75 C-4.16 170.22 -3.92 174.61 -5 180 C-5.33 180 -5.66 180 -6 180 C-6.06 178.33 -6.12 176.67 -6.18 174.95 C-6.27 172.74 -6.35 170.53 -6.44 168.25 C-6.52 166.07 -6.6 163.89 -6.68 161.64 C-6.87 157.74 -7.12 153.84 -7.51 149.95 C-8.19 140.33 -8.14 130.74 -8.13 121.09 C-8.13 120.04 -8.13 120.04 -8.14 114.7 C-8.14 110.24 -8.13 105.78 -8.13 101.32 C-8.13 94.55 -8.13 87.78 -8.14 81.01 C-8.14 76.66 -8.13 72.32 -8.13 67.97 C-8.13 65.97 -8.14 63.96 -8.14 61.9 C-8.11 45.71 -7.93 29.49 -5.56 13.44 C-5.32 11.7 -5.07 9.97 -4.82 8.18 C-4 4 -4 4 -2 1 C-1.34 0.67 -0.68 0.34 0 0 Z " fill="#363b45" transform="translate(8,174)"/>
<path d="M0 0 C23.35 7.78 41.45 27.87 53.25 48.75 C63.27 71.52 64.24 95.62 60 120 C58.68 121.32 57.36 122.64 56 124 C56 120 56 116 56 112 C56.99 112 57.98 112 59 112 C58.83 110.68 58.83 110.68 58 104 C58.33 104 58.66 104 59 104 C58.91 103.01 58.91 103.01 58.44 98 C58.1 92.63 58.07 88.24 59 83 C58.67 83.16 58.67 83.16 57 84 C57.04 82.47 57.08 80.95 57.12 79.38 C57 74 57 74 55 68 C55 66.02 55 64.04 55 62 C53 58 53 58 51 57 C50.86 55.72 50.71 54.44 50.56 53.12 C50 49 50 49 47 46 C46.67 45.01 46.34 44.02 46 43 C45.34 43 44.68 43 44 43 C44.33 42.01 44.66 41.02 45 40 C43.02 38.35 41.04 36.7 39 35 C38.34 33.35 37.68 31.7 37 30 C33 26 33 26 28.81 22.44 C25 19 25 19 24 16 C22.02 15.34 20.04 14.68 18 14 C16.35 12.68 14.7 11.36 13 10 C13 9.34 13 8.68 13 8 C11.35 8 9.7 8 8 8 C8 7.34 8 6.68 8 6 C6.68 6 5.36 6 4 6 C2.68 4.68 1.36 3.36 0 2 C0 1.34 0 0.68 0 0 Z " fill="#191d24" transform="translate(410,517)"/>
<path d="M0 0 C0.33 0 0.66 0 1 0 C1.97 34.15 2.16 68.29 2.13 102.46 C2.12 109.69 2.13 116.93 2.13 124.16 C2.16 161.78 1.8 199.38 1 237 C0.67 237 0.34 237 0 237 C-0.84 226.12 -1.14 215.35 -1.13 204.44 C-1.13 202.75 -1.13 201.06 -1.13 199.32 C-1.14 193.76 -1.14 188.2 -1.13 182.64 C-1.13 178.72 -1.13 174.81 -1.14 170.9 C-1.14 162.69 -1.14 154.48 -1.13 146.27 C-1.12 135.87 -1.13 125.48 -1.13 115.08 C-1.14 106.98 -1.14 98.89 -1.13 90.79 C-1.13 86.97 -1.13 83.14 -1.14 79.32 C-1.15 52.86 -0.74 26.44 0 0 Z " fill="#111318" transform="translate(1007,308)"/>
<path d="M0 0 C10.88 -0.02 21.77 -0.04 32.65 -0.05 C36.35 -0.06 40.04 -0.07 43.74 -0.08 C49.08 -0.09 54.42 -0.09 59.77 -0.1 C61.39 -0.1 63.02 -0.11 64.69 -0.11 C76.15 -0.11 87.56 0.33 99 1 C99 4.63 99 8.26 99 12 C77.34 13.23 55.69 13.11 34 13.06 C30.3 13.06 26.61 13.05 22.91 13.05 C13.94 13.04 4.97 13.02 -4 13 C-4 12.67 -4 12.34 -4 12 C-2.37 12.04 -0.74 12.08 0.94 12.12 C2.61 12.08 4.28 12.04 6 12 C6.33 11.34 6.66 10.68 7 10 C11.89 9.83 16.73 9.79 21.62 9.84 C22.36 9.84 22.36 9.84 26.12 9.86 C30.89 9.87 35.66 9.9 40.44 9.94 C45.18 9.97 49.92 9.99 54.66 10.01 C57.61 10.02 60.57 10.04 63.53 10.06 C82.69 10.15 82.69 10.15 87 8 C87 8.99 87 9.98 87 11 C88.49 10.84 88.49 10.84 96 10 C96.33 7.69 96.66 5.38 97 3 C38.99 1 38.99 1 25 3 C22.69 2.34 20.38 1.68 18 1 C18 1.66 18 2.32 18 3 C15.19 2.89 12.37 2.76 9.56 2.62 C8 2.56 6.43 2.49 4.82 2.41 C3.56 2.28 2.3 2.14 1 2 C0.67 1.34 0.34 0.68 0 0 Z " fill="#363b45" transform="translate(225,1010)"/>
<path d="M0 0 C41.68 2.05 83.13 27.49 113 55 C114.55 56.34 116.09 57.68 117.69 59.06 C129.91 70.22 147.9 88.58 152 105 C148 101 148 101 144.75 95.88 C138.46 86.02 130.89 77.59 123 69 C121.8 67.6 120.61 66.19 119.38 64.75 C115.81 60.79 112.08 57.43 108 54 C106.21 52.45 104.41 50.91 102.56 49.31 C72.69 24.66 37.7 9.2 0 1 C0 0.67 0 0.34 0 0 Z " fill="#6f7785" transform="translate(840,5)"/>
<path d="M0 0 C0 0.33 0 0.66 0 1 C-2.41 1.43 -4.83 1.87 -7.31 2.31 C-15 4 -15 4 -18 7 C-18.33 6.84 -18.33 6.84 -20 6 C-56.24 6 -98.57 34.02 -124 58 C-125.34 59.16 -126.68 60.31 -128.06 61.5 C-139.61 71.76 -154.97 85.91 -160 101 C-160.5 101.16 -160.5 101.16 -163 102 C-155.43 83.08 -137.6 64.81 -122 52 C-121.46 51.55 -121.46 51.55 -118.7 49.27 C-86.31 22.79 -42.83 0 0 0 Z " fill="#747c89" transform="translate(198,3)"/>
<path d="M0 0 C0.99 0.33 1.98 0.66 3 1 C1.14 4.73 -3.45 6.09 -7 8 C-12 11 -12 11 -17.25 14.88 C-23 19 -23 19 -27.75 21.56 C-32.3 24.17 -35.35 27.28 -39 31 C-39.99 31 -40.98 31 -42 31 C-42.66 32.32 -43.32 33.64 -44 35 C-49.06 39.71 -54.27 44.23 -59.5 48.75 C-64 53 -64 53 -66 58 C-67.65 59.32 -69.3 60.64 -71 62 C-73.05 64.96 -75.04 67.97 -77 71 C-78.36 72.86 -79.72 74.71 -81.12 76.62 C-85 82 -85 82 -87.25 86.12 C-89 89 -89 89 -93 90 C-91 84 -91 84 -87 78 C-86.34 77.84 -86.34 77.84 -83 77 C-82.67 75.35 -82.34 73.7 -82 72 C-69.58 54.28 -55.01 38.38 -38 25 C-36.02 23.41 -34.04 21.82 -32 20.19 C-21.99 12.52 -11.27 5.64 0 0 Z " fill="#4b5260" transform="translate(121,27)"/>
<path d="M0 0 C0.99 0.33 1.98 0.66 3 1 C1.14 12.14 -4.91 22.01 -10 32 C-10.82 33.6 -11.63 35.21 -12.47 36.86 C-19.52 50.52 -27.16 63.78 -35 77 C-35.8 78.34 -36.59 79.69 -37.42 81.07 C-40.81 86.79 -44.2 92.51 -47.6 98.23 C-53.75 108.56 -53.75 108.56 -56.19 112.93 C-56.49 113.43 -56.49 113.43 -58 116 C-58.33 116 -58.66 116 -59 116 C-59 108.78 -56.8 106 -53 100 C-52.34 98.35 -51.68 96.7 -51 95 C-50.34 95 -49.68 95 -49 95 C-48.34 92.69 -47.68 90.38 -47 88 C-46.34 88 -45.68 88 -45 88 C-44.34 86.02 -43.68 84.04 -43 82 C-42.34 82 -41.68 82 -41 82 C-39.94 79.36 -38.9 76.7 -38 74 C-37.34 74 -36.68 74 -36 74 C-36 73.34 -36 72.68 -36 72 C-35.34 72 -34.68 72 -34 72 C-34 70.02 -34 68.04 -34 66 C-33.34 65.84 -33.34 65.84 -30 65 C-29.67 63.35 -29.34 61.7 -29 60 C-28.67 59.34 -28.34 58.68 -28 58 C-27.34 58 -26.68 58 -26 58 C-25.67 56.35 -25.34 54.7 -25 53 C-24.83 52.67 -24.83 52.67 -24 51 C-23.34 51 -22.68 51 -22 51 C-21.67 48.69 -21.34 46.38 -21 44 C-20.01 42.02 -19.02 40.04 -18 38 C-17.34 38 -16.68 38 -16 38 C-15.34 36.02 -14.68 34.04 -14 32 C-12.7 29.32 -11.37 26.65 -10 24 C-9.67 23.34 -9.34 22.68 -9 22 C-8.01 20.35 -7.02 18.7 -6 17 C-5.67 15.35 -5.34 13.7 -5 12 C-4.01 11.01 -3.02 10.02 -2 9 C-1.25 6.02 -0.57 3.02 0 0 Z " fill="#191d24" transform="translate(452,679)"/>
<path d="M0 0 C1.79 0 3.58 0 5.42 0 C6.39 0.01 6.39 0.01 11.25 0.04 C12.23 0.05 12.23 0.05 17.18 0.06 C35.21 0.16 53.23 0.61 71.25 1.23 C71.25 1.56 71.25 1.89 71.25 2.23 C74.88 2.4 74.88 2.4 93.25 3.23 C93.25 3.56 93.25 3.89 93.25 4.23 C72.03 5.06 50.84 5.39 29.6 5.36 C24.76 5.36 19.93 5.36 15.09 5.37 C11.96 5.37 8.82 5.37 5.69 5.36 C4.98 5.36 4.98 5.36 1.4 5.37 C-8.02 5.35 -17.35 4.89 -26.75 4.23 C-26.75 3.9 -26.75 3.57 -26.75 3.23 C-24.52 3.11 -22.29 2.98 -20 2.86 C-12.71 2.23 -7.36 -0.02 0 0 Z " fill="#CF6127" transform="translate(274.75,498.76953125)"/>
<path d="M0 0 C5 3 5 3 6 4 C6.62 12.3 5.7 17.11 1 24 C-7.43 32.43 -16.1 38.62 -28 41 C-30.23 40.98 -32.46 40.96 -34.75 40.94 C-35.78 40.95 -35.78 40.95 -41 41 C-41.33 41.66 -41.66 42.32 -42 43 C-43.98 42.34 -45.96 41.68 -48 41 C-48 40.34 -48 39.68 -48 39 C-46.45 38.92 -44.91 38.83 -43.31 38.75 C-28.03 36.93 -11.58 30.42 0 20 C2.88 12.8 2.88 7.2 0 0 Z " fill="#DFEAFA" transform="translate(749,327)"/>
<path d="M0 0 C0.33 0 0.66 0 1 0 C1.75 7.31 2.13 14.5 2.13 21.85 C2.13 23.95 2.14 26.04 2.14 28.2 C2.14 30.44 2.13 32.68 2.13 34.99 C2.13 37.31 2.13 39.64 2.14 42.04 C2.14 46.95 2.13 51.86 2.13 56.78 C2.13 64.27 2.13 71.77 2.14 79.27 C2.14 84.05 2.13 88.83 2.13 93.61 C2.13 95.85 2.14 98.08 2.14 100.38 C2.12 110.98 1.83 121.43 1 132 C0.82 137.7 0.75 143.41 0.68 149.12 C0.66 150.7 0.64 152.27 0.62 153.9 C0.56 158.89 0.5 163.88 0.44 168.88 C0.39 172.28 0.35 175.68 0.31 179.09 C0.2 187.39 0.1 195.7 0 204 C-0.33 204 -0.66 204 -1 204 C-1.03 182.75 -1.05 161.5 -1.06 140.25 C-1.06 138.69 -1.06 137.14 -1.07 135.53 C-1.09 90.35 -1.02 45.17 0 0 Z " fill="#20242b" transform="translate(15,405)"/>
<circle cx="457" cy="345" r="10" fill="#ffffff" opacity="0.88"/></svg>
